<svg xmlns="http://www.w3.org/2000/svg" viewBox="0 0 192 192" fill="none">
  <defs>
    <linearGradient id="grad1" x1="0%" y1="0%" x2="100%" y2="100%">
      <stop offset="0%" stop-color="#0ea5e9" />
      <stop offset="100%" stop-color="#3b82f6" />
    </linearGradient>
    <linearGradient id="grad2" x1="0%" y1="0%" x2="100%" y2="100%">
      <stop offset="0%" stop-color="#8b5cf6" />
      <stop offset="100%" stop-color="#06b6d4" />
    </linearGradient>
  </defs>
  
  <circle cx="96" cy="96" r="86" fill="url(#grad1)"/>
  
  <path d="M58 86 L96 58 L134 86 L134 115 L96 134 L58 115 Z" fill="white" opacity="0.95"/>
  
  <path d="M58 86 L96 105 L134 86" stroke="url(#grad1)" stroke-width="5" fill="none" stroke-linecap="round" stroke-linejoin="round"/>
  
  <circle cx="67" cy="67" r="5" fill="url(#grad2)"/>
  <circle cx="96" cy="54" r="5" fill="url(#grad2)"/>
  <circle cx="125" cy="67" r="5" fill="url(#grad2)"/>
  <circle cx="80" cy="80" r="4" fill="url(#grad2)" opacity="0.7"/>
  <circle cx="112" cy="80" r="4" fill="url(#grad2)" opacity="0.7"/>
  
  <path d="M67 67 L80 80 M96 54 L80 80 M96 54 L112 80 M125 67 L112 80" stroke="url(#grad2)" stroke-width="3" opacity="0.5" stroke-linecap="round"/>
</svg>
